<?xml version="1.0" standalone="no"?>
<!DOCTYPE svg PUBLIC "-//W3C//DTD SVG 20010904//EN"
 "http://www.w3.org/TR/2001/REC-SVG-20010904/DTD/svg10.dtd">
<svg version="1.0" xmlns="http://www.w3.org/2000/svg"
 width="514.000000pt" height="252.000000pt" viewBox="0 0 514.000000 252.000000"
 preserveAspectRatio="xMidYMid meet">

<g transform="translate(0.000000,252.000000) scale(0.100000,-0.100000)"
fill="#000000" stroke="none">
<path d="M4055 2380 c-22 -4 -80 -14 -130 -23 -222 -38 -392 -129 -453 -242
-20 -37 -23 -198 -4 -232 12 -22 14 -22 40 -6 15 9 41 29 57 43 17 14 62 40
100 59 39 18 82 39 96 47 15 8 51 19 80 25 30 6 77 18 104 27 40 14 89 17 245
17 172 -1 204 -3 271 -23 41 -12 83 -22 93 -22 15 0 118 -44 171 -73 11 -6 29
-15 41 -22 11 -6 44 -29 71 -53 57 -47 62 -46 88 28 19 55 19 77 -2 146 -36
116 -187 221 -378 265 -197 44 -383 59 -490 39z"/>
<path d="M4981 1854 c-1 -10 -112 -127 -162 -170 -58 -50 -200 -113 -309 -138
-36 -8 -92 -22 -125 -30 -33 -8 -87 -19 -120 -24 -56 -9 -97 -18 -255 -57
-146 -36 -177 -45 -233 -71 -117 -52 -237 -151 -282 -231 -35 -63 -75 -223
-75 -300 0 -150 75 -327 173 -406 22 -18 47 -39 56 -48 26 -27 116 -68 209
-97 81 -24 103 -26 313 -30 236 -4 294 1 474 42 135 30 227 61 273 92 19 13
39 24 43 24 5 0 15 13 24 30 13 25 15 118 14 707 0 373 -4 687 -9 698 -5 11
-9 15 -9 9z m-293 -893 c3 -344 3 -342 -70 -362 -24 -6 -55 -17 -71 -25 -31
-16 -285 -54 -361 -54 -84 0 -247 35 -290 61 -22 13 -59 43 -82 67 -52 53 -70
119 -60 230 7 85 21 117 78 171 81 79 204 118 458 147 108 12 219 35 310 65
14 4 39 7 55 6 l30 -2 3 -304z"/>
<path d="M278 1264 c-64 -27 -103 -59 -118 -98 -13 -36 -13 -178 1 -247 10
-50 9 -59 -16 -112 -30 -67 -28 -100 12 -147 41 -50 59 -54 216 -60 149 -5
149 -5 173 -34 37 -43 30 -90 -19 -130 -37 -29 -43 -31 -125 -31 -81 1 -92 4
-157 38 -66 35 -71 36 -83 20 -7 -10 -12 -36 -10 -57 3 -35 8 -43 50 -68 58
-36 174 -51 292 -37 91 10 137 35 183 101 25 37 28 50 28 119 0 73 -2 80 -30
109 -54 57 -77 64 -230 68 -77 2 -148 8 -158 14 -29 15 -40 57 -23 84 14 20
19 22 53 12 21 -6 78 -8 128 -6 83 4 94 7 147 41 52 33 59 42 75 94 23 73 26
271 4 296 -7 9 -29 20 -50 23 -20 4 -50 13 -68 21 -20 8 -68 13 -125 12 -74
-1 -105 -6 -150 -25z m222 -90 c47 -19 60 -38 60 -91 0 -72 -12 -110 -46 -147
-30 -33 -37 -36 -88 -36 -80 0 -104 12 -128 66 -38 87 -12 186 57 214 33 14
102 11 145 -6z"/>
<path d="M930 1276 c-20 -8 -56 -17 -80 -21 -86 -14 -80 11 -80 -324 0 -333
-3 -318 71 -328 68 -10 69 -7 69 283 0 190 3 254 13 262 7 6 33 16 59 22 39
10 55 9 98 -5 66 -22 80 -16 80 34 0 35 -5 43 -37 66 -31 20 -49 25 -98 24
-33 0 -76 -6 -95 -13z"/>
<path d="M1975 1266 c-38 -12 -78 -24 -87 -28 -17 -7 -18 -38 -18 -462 l0
-455 30 -16 c41 -21 87 -19 100 4 5 11 10 78 10 148 0 152 6 168 60 153 61
-18 179 -12 225 10 56 27 105 80 116 126 12 55 11 351 -2 398 -15 54 -53 89
-130 120 -84 33 -199 34 -304 2z m236 -97 c59 -30 69 -62 69 -221 0 -153 -10
-198 -48 -229 -40 -31 -127 -24 -173 15 -19 16 -37 36 -41 45 -9 21 -10 344
-2 366 17 44 129 58 195 24z"/>
<path d="M2660 1264 c-75 -28 -136 -86 -146 -138 -3 -18 -4 -114 -2 -212 3
-179 3 -179 31 -216 16 -20 50 -50 75 -65 45 -27 52 -28 183 -28 129 0 138 1
192 29 42 21 63 40 84 75 28 46 28 46 28 231 0 154 -3 190 -17 215 -27 50 -69
82 -142 109 -92 35 -194 35 -286 0z m200 -80 c17 -4 47 -21 66 -39 l34 -32 0
-173 0 -172 -35 -35 -35 -35 -90 4 c-82 3 -92 5 -117 31 -28 27 -28 28 -31
185 -4 199 2 222 66 250 49 22 88 26 142 16z"/>
<path d="M1242 1255 c-21 -26 -22 -38 -22 -220 0 -273 16 -340 99 -399 l43
-31 157 0 c141 0 160 2 197 22 71 38 69 27 72 326 l3 269 -27 29 c-29 31 -76
39 -91 17 -4 -7 -10 -129 -13 -270 -6 -310 2 -291 -133 -296 l-92 -4 -35 37
-35 36 -5 239 c-3 152 -9 243 -16 250 -6 6 -27 13 -46 16 -30 5 -38 2 -56 -21z"/>
</g>
</svg>
